<?xml version="1.0" encoding="UTF-8"?>
<!DOCTYPE svg PUBLIC "-//W3C//DTD SVG 1.1//EN" "http://www.w3.org/Graphics/SVG/1.1/DTD/svg11.dtd">
<!-- Creator: CorelDRAW 2020 (64-Bit) -->
<svg xmlns="http://www.w3.org/2000/svg" xml:space="preserve" width="4.8525in" height="1.11497in" version="1.1" style="shape-rendering:geometricPrecision; text-rendering:geometricPrecision; image-rendering:optimizeQuality; fill-rule:evenodd; clip-rule:evenodd"
viewBox="0 0 4673.18 1073.77"
 xmlns:xlink="http://www.w3.org/1999/xlink"
 xmlns:xodm="http://www.corel.com/coreldraw/odm/2003">
 <defs>
  <style type="text/css">
   <![CDATA[
    .fil0 {fill:black}
    .fil1 {fill:black;fill-rule:nonzero}
   ]]>
  </style>
 </defs>
 <g id="Layer_x0020_1">
  <metadata id="CorelCorpID_0Corel-Layer"/>
  <g id="_2762420856880">
   <g>
    <circle class="fil0" cx="410.25" cy="604.32" r="31.1"/>
    <circle class="fil0" cx="452.3" cy="536.54" r="24.88"/>
    <circle class="fil0" cx="494.35" cy="468.76" r="19.9"/>
    <circle class="fil0" cx="536.4" cy="400.98" r="15.92"/>
    <circle class="fil0" cx="578.45" cy="333.21" r="12.74"/>
    <circle class="fil0" cx="620.5" cy="265.43" r="10.19"/>
    <circle class="fil0" cx="662.55" cy="197.65" r="8.15"/>
    <circle class="fil0" cx="704.6" cy="129.87" r="6.52"/>
    <circle class="fil0" cx="746.65" cy="62.09" r="5.22"/>
    <circle class="fil0" cx="334.42" cy="592.95" r="31.1"/>
    <circle class="fil0" cx="376.47" cy="525.17" r="24.88"/>
    <circle class="fil0" cx="418.52" cy="457.39" r="19.9"/>
    <circle class="fil0" cx="460.57" cy="389.61" r="15.92"/>
    <circle class="fil0" cx="502.62" cy="321.83" r="12.74"/>
    <circle class="fil0" cx="544.67" cy="254.05" r="10.19"/>
    <circle class="fil0" cx="586.72" cy="186.27" r="8.15"/>
    <circle class="fil0" cx="628.77" cy="118.49" r="6.52"/>
    <circle class="fil0" cx="670.82" cy="50.72" r="5.22"/>
    <circle class="fil0" cx="258.59" cy="581.57" r="31.1"/>
    <circle class="fil0" cx="300.64" cy="513.79" r="24.88"/>
    <circle class="fil0" cx="342.69" cy="446.02" r="19.9"/>
    <circle class="fil0" cx="384.74" cy="378.23" r="15.92"/>
    <circle class="fil0" cx="426.79" cy="310.46" r="12.74"/>
    <circle class="fil0" cx="468.84" cy="242.68" r="10.19"/>
    <circle class="fil0" cx="510.89" cy="174.9" r="8.15"/>
    <circle class="fil0" cx="552.94" cy="107.12" r="6.52"/>
    <circle class="fil0" cx="594.99" cy="39.34" r="5.22"/>
    <circle class="fil0" cx="182.76" cy="570.2" r="31.1"/>
    <circle class="fil0" cx="224.81" cy="502.42" r="24.88"/>
    <circle class="fil0" cx="266.86" cy="434.64" r="19.9"/>
    <circle class="fil0" cx="308.91" cy="366.86" r="15.92"/>
    <circle class="fil0" cx="350.96" cy="299.08" r="12.74"/>
    <circle class="fil0" cx="393.01" cy="231.3" r="10.19"/>
    <circle class="fil0" cx="435.06" cy="163.52" r="8.15"/>
    <circle class="fil0" cx="477.11" cy="95.74" r="6.52"/>
    <circle class="fil0" cx="519.16" cy="27.97" r="5.22"/>
    <circle class="fil0" cx="106.93" cy="558.82" r="31.1"/>
    <circle class="fil0" cx="148.98" cy="491.04" r="24.88"/>
    <circle class="fil0" cx="191.03" cy="423.27" r="19.9"/>
    <circle class="fil0" cx="233.08" cy="355.49" r="15.92"/>
    <circle class="fil0" cx="275.13" cy="287.71" r="12.74"/>
    <circle class="fil0" cx="317.18" cy="219.93" r="10.19"/>
    <circle class="fil0" cx="359.23" cy="152.15" r="8.15"/>
    <circle class="fil0" cx="401.28" cy="84.37" r="6.52"/>
    <circle class="fil0" cx="443.33" cy="16.59" r="5.22"/>
    <circle class="fil0" cx="31.1" cy="547.45" r="31.1"/>
    <circle class="fil0" cx="73.15" cy="479.67" r="24.88"/>
    <circle class="fil0" cx="115.2" cy="411.89" r="19.9"/>
    <circle class="fil0" cx="157.25" cy="344.11" r="15.92"/>
    <circle class="fil0" cx="199.3" cy="276.33" r="12.74"/>
    <circle class="fil0" cx="241.35" cy="208.55" r="10.19"/>
    <circle class="fil0" cx="283.4" cy="140.78" r="8.15"/>
    <circle class="fil0" cx="325.45" cy="72.99" r="6.52"/>
    <circle class="fil0" cx="367.5" cy="5.22" r="5.22"/>
    <circle class="fil0" transform="matrix(-0.5 -0.866025 0.866025 -0.5 676.437 685.867)" r="31.1"/>
    <circle class="fil0" transform="matrix(-0.4 -0.69282 0.69282 -0.4 596.711 683.34)" r="31.1"/>
    <circle class="fil0" transform="matrix(-0.32 -0.554256 0.554256 -0.32 516.991 680.814)" r="31.1"/>
    <circle class="fil0" transform="matrix(-0.256 -0.443405 0.443405 -0.256 437.265 678.287)" r="31.1"/>
    <circle class="fil0" transform="matrix(-0.2048 -0.354724 0.354724 -0.2048 357.544 675.761)" r="31.1"/>
    <circle class="fil0" transform="matrix(-0.16384 -0.283779 0.283779 -0.16384 277.818 673.233)" r="31.1"/>
    <circle class="fil0" transform="matrix(-0.131072 -0.227023 0.227023 -0.131072 198.095 670.704)" r="31.1"/>
    <circle class="fil0" transform="matrix(-0.104858 -0.181619 0.181619 -0.104858 118.371 668.18)" r="31.1"/>
    <circle class="fil0" transform="matrix(-0.0838861 -0.145295 0.145295 -0.0838861 38.6486 665.65)" r="31.1"/>
    <circle class="fil0" transform="matrix(-0.5 -0.866025 0.866025 -0.5 704.502 757.226)" r="31.1"/>
    <circle class="fil0" transform="matrix(-0.4 -0.69282 0.69282 -0.4 624.776 754.698)" r="31.1"/>
    <circle class="fil0" transform="matrix(-0.32 -0.554256 0.554256 -0.32 545.055 752.172)" r="31.1"/>
    <circle class="fil0" transform="matrix(-0.256 -0.443405 0.443405 -0.256 465.329 749.645)" r="31.1"/>
    <circle class="fil0" transform="matrix(-0.2048 -0.354724 0.354724 -0.2048 385.608 747.119)" r="31.1"/>
    <circle class="fil0" transform="matrix(-0.16384 -0.283779 0.283779 -0.16384 305.882 744.591)" r="31.1"/>
    <circle class="fil0" transform="matrix(-0.131072 -0.227023 0.227023 -0.131072 226.16 742.062)" r="31.1"/>
    <circle class="fil0" transform="matrix(-0.104858 -0.181619 0.181619 -0.104858 146.436 739.538)" r="31.1"/>
    <circle class="fil0" transform="matrix(-0.0838861 -0.145295 0.145295 -0.0838861 66.7131 737.009)" r="31.1"/>
    <circle class="fil0" transform="matrix(-0.5 -0.866025 0.866025 -0.5 732.566 828.584)" r="31.1"/>
    <circle class="fil0" transform="matrix(-0.4 -0.69282 0.69282 -0.4 652.84 826.057)" r="31.1"/>
    <circle class="fil0" transform="matrix(-0.32 -0.554256 0.554256 -0.32 573.12 823.531)" r="31.1"/>
    <circle class="fil0" transform="matrix(-0.256 -0.443405 0.443405 -0.256 493.394 821.003)" r="31.1"/>
    <circle class="fil0" transform="matrix(-0.2048 -0.354724 0.354724 -0.2048 413.673 818.477)" r="31.1"/>
    <circle class="fil0" transform="matrix(-0.16384 -0.283779 0.283779 -0.16384 333.947 815.95)" r="31.1"/>
    <circle class="fil0" transform="matrix(-0.131072 -0.227023 0.227023 -0.131072 254.224 813.42)" r="31.1"/>
    <circle class="fil0" transform="matrix(-0.104858 -0.181619 0.181619 -0.104858 174.5 810.896)" r="31.1"/>
    <circle class="fil0" transform="matrix(-0.0838861 -0.145295 0.145295 -0.0838861 94.7777 808.367)" r="31.1"/>
    <circle class="fil0" transform="matrix(-0.5 -0.866025 0.866025 -0.5 760.631 899.942)" r="31.1"/>
    <circle class="fil0" transform="matrix(-0.4 -0.69282 0.69282 -0.4 680.905 897.415)" r="31.1"/>
    <circle class="fil0" transform="matrix(-0.32 -0.554256 0.554256 -0.32 601.184 894.889)" r="31.1"/>
    <circle class="fil0" transform="matrix(-0.256 -0.443405 0.443405 -0.256 521.458 892.361)" r="31.1"/>
    <circle class="fil0" transform="matrix(-0.2048 -0.354724 0.354724 -0.2048 441.737 889.835)" r="31.1"/>
    <circle class="fil0" transform="matrix(-0.16384 -0.283779 0.283779 -0.16384 362.012 887.308)" r="31.1"/>
    <circle class="fil0" transform="matrix(-0.131072 -0.227023 0.227023 -0.131072 282.289 884.779)" r="31.1"/>
    <circle class="fil0" transform="matrix(-0.104858 -0.181619 0.181619 -0.104858 202.565 882.255)" r="31.1"/>
    <circle class="fil0" transform="matrix(-0.0838861 -0.145295 0.145295 -0.0838861 122.842 879.725)" r="31.1"/>
    <circle class="fil0" transform="matrix(-0.5 -0.866025 0.866025 -0.5 788.695 971.301)" r="31.1"/>
    <circle class="fil0" transform="matrix(-0.4 -0.69282 0.69282 -0.4 708.969 968.773)" r="31.1"/>
    <circle class="fil0" transform="matrix(-0.32 -0.554256 0.554256 -0.32 629.249 966.247)" r="31.1"/>
    <circle class="fil0" transform="matrix(-0.256 -0.443405 0.443405 -0.256 549.523 963.72)" r="31.1"/>
    <circle class="fil0" transform="matrix(-0.2048 -0.354724 0.354724 -0.2048 469.802 961.194)" r="31.1"/>
    <circle class="fil0" transform="matrix(-0.16384 -0.283779 0.283779 -0.16384 390.076 958.666)" r="31.1"/>
    <circle class="fil0" transform="matrix(-0.131072 -0.227023 0.227023 -0.131072 310.353 956.137)" r="31.1"/>
    <circle class="fil0" transform="matrix(-0.104858 -0.181619 0.181619 -0.104858 230.629 953.613)" r="31.1"/>
    <circle class="fil0" transform="matrix(-0.0838861 -0.145295 0.145295 -0.0838861 150.907 951.084)" r="31.1"/>
    <circle class="fil0" transform="matrix(-0.5 -0.866025 0.866025 -0.5 816.76 1042.66)" r="31.1"/>
    <circle class="fil0" transform="matrix(-0.4 -0.69282 0.69282 -0.4 737.034 1040.13)" r="31.1"/>
    <circle class="fil0" transform="matrix(-0.32 -0.554256 0.554256 -0.32 657.313 1037.61)" r="31.1"/>
    <circle class="fil0" transform="matrix(-0.256 -0.443405 0.443405 -0.256 577.587 1035.08)" r="31.1"/>
    <circle class="fil0" transform="matrix(-0.2048 -0.354724 0.354724 -0.2048 497.867 1032.55)" r="31.1"/>
    <circle class="fil0" transform="matrix(-0.16384 -0.283779 0.283779 -0.16384 418.141 1030.02)" r="31.1"/>
    <circle class="fil0" transform="matrix(-0.131072 -0.227023 0.227023 -0.131072 338.418 1027.5)" r="31.1"/>
    <circle class="fil0" transform="matrix(-0.104858 -0.181619 0.181619 -0.104858 258.694 1024.97)" r="31.1"/>
    <circle class="fil0" transform="matrix(-0.0838861 -0.145295 0.145295 -0.0838861 178.971 1022.44)" r="31.1"/>
    <circle class="fil0" transform="matrix(-0.5 0.866025 -0.866025 -0.5 604.209 418.018)" r="31.1"/>
    <circle class="fil0" transform="matrix(-0.4 0.69282 -0.69282 -0.4 641.883 488.327)" r="31.1"/>
    <circle class="fil0" transform="matrix(-0.32 0.554256 -0.554256 -0.32 679.556 558.63)" r="31.1"/>
    <circle class="fil0" transform="matrix(-0.256 0.443405 -0.443405 -0.256 717.23 628.938)" r="31.1"/>
    <circle class="fil0" transform="matrix(-0.2048 0.354724 -0.354724 -0.2048 754.903 699.242)" r="31.1"/>
    <circle class="fil0" transform="matrix(-0.16384 0.283779 -0.283779 -0.16384 792.577 769.55)" r="31.1"/>
    <circle class="fil0" transform="matrix(-0.131072 0.227023 -0.227023 -0.131072 830.248 839.856)" r="31.1"/>
    <circle class="fil0" transform="matrix(-0.104858 0.181619 -0.181619 -0.104858 867.924 910.161)" r="31.1"/>
    <circle class="fil0" transform="matrix(-0.0838861 0.145295 -0.145295 -0.0838861 905.595 980.468)" r="31.1"/>
    <circle class="fil0" transform="matrix(-0.5 0.866025 -0.866025 -0.5 651.975 358.035)" r="31.1"/>
    <circle class="fil0" transform="matrix(-0.4 0.69282 -0.69282 -0.4 689.649 428.343)" r="31.1"/>
    <circle class="fil0" transform="matrix(-0.32 0.554256 -0.554256 -0.32 727.322 498.646)" r="31.1"/>
    <circle class="fil0" transform="matrix(-0.256 0.443405 -0.443405 -0.256 764.996 568.955)" r="31.1"/>
    <circle class="fil0" transform="matrix(-0.2048 0.354724 -0.354724 -0.2048 802.669 639.258)" r="31.1"/>
    <circle class="fil0" transform="matrix(-0.16384 0.283779 -0.283779 -0.16384 840.343 709.566)" r="31.1"/>
    <circle class="fil0" transform="matrix(-0.131072 0.227023 -0.227023 -0.131072 878.014 779.873)" r="31.1"/>
    <circle class="fil0" transform="matrix(-0.104858 0.181619 -0.181619 -0.104858 915.69 850.178)" r="31.1"/>
    <circle class="fil0" transform="matrix(-0.0838861 0.145295 -0.145295 -0.0838861 953.361 920.484)" r="31.1"/>
    <circle class="fil0" transform="matrix(-0.5 0.866025 -0.866025 -0.5 699.741 298.051)" r="31.1"/>
    <circle class="fil0" transform="matrix(-0.4 0.69282 -0.69282 -0.4 737.415 368.359)" r="31.1"/>
    <circle class="fil0" transform="matrix(-0.32 0.554256 -0.554256 -0.32 775.088 438.662)" r="31.1"/>
    <circle class="fil0" transform="matrix(-0.256 0.443405 -0.443405 -0.256 812.762 508.971)" r="31.1"/>
    <circle class="fil0" transform="matrix(-0.2048 0.354724 -0.354724 -0.2048 850.435 579.274)" r="31.1"/>
    <circle class="fil0" transform="matrix(-0.16384 0.283779 -0.283779 -0.16384 888.109 649.582)" r="31.1"/>
    <circle class="fil0" transform="matrix(-0.131072 0.227023 -0.227023 -0.131072 925.78 719.889)" r="31.1"/>
    <circle class="fil0" transform="matrix(-0.104858 0.181619 -0.181619 -0.104858 963.456 790.194)" r="31.1"/>
    <circle class="fil0" transform="matrix(-0.0838861 0.145295 -0.145295 -0.0838861 1001.13 860.5)" r="31.1"/>
    <circle class="fil0" transform="matrix(-0.5 0.866025 -0.866025 -0.5 747.507 238.067)" r="31.1"/>
    <circle class="fil0" transform="matrix(-0.4 0.69282 -0.69282 -0.4 785.181 308.375)" r="31.1"/>
    <circle class="fil0" transform="matrix(-0.32 0.554256 -0.554256 -0.32 822.854 378.679)" r="31.1"/>
    <circle class="fil0" transform="matrix(-0.256 0.443405 -0.443405 -0.256 860.528 448.987)" r="31.1"/>
    <circle class="fil0" transform="matrix(-0.2048 0.354724 -0.354724 -0.2048 898.201 519.29)" r="31.1"/>
    <circle class="fil0" transform="matrix(-0.16384 0.283779 -0.283779 -0.16384 935.875 589.599)" r="31.1"/>
    <circle class="fil0" transform="matrix(-0.131072 0.227023 -0.227023 -0.131072 973.546 659.905)" r="31.1"/>
    <circle class="fil0" transform="matrix(-0.104858 0.181619 -0.181619 -0.104858 1011.22 730.21)" r="31.1"/>
    <circle class="fil0" transform="matrix(-0.0838861 0.145295 -0.145295 -0.0838861 1048.89 800.517)" r="31.1"/>
    <circle class="fil0" transform="matrix(-0.5 0.866025 -0.866025 -0.5 795.272 178.083)" r="31.1"/>
    <circle class="fil0" transform="matrix(-0.4 0.69282 -0.69282 -0.4 832.947 248.392)" r="31.1"/>
    <circle class="fil0" transform="matrix(-0.32 0.554256 -0.554256 -0.32 870.619 318.695)" r="31.1"/>
    <circle class="fil0" transform="matrix(-0.256 0.443405 -0.443405 -0.256 908.294 389.003)" r="31.1"/>
    <circle class="fil0" transform="matrix(-0.2048 0.354724 -0.354724 -0.2048 945.966 459.306)" r="31.1"/>
    <circle class="fil0" transform="matrix(-0.16384 0.283779 -0.283779 -0.16384 983.641 529.615)" r="31.1"/>
    <circle class="fil0" transform="matrix(-0.131072 0.227023 -0.227023 -0.131072 1021.31 599.921)" r="31.1"/>
    <circle class="fil0" transform="matrix(-0.104858 0.181619 -0.181619 -0.104858 1058.99 670.226)" r="31.1"/>
    <circle class="fil0" transform="matrix(-0.0838861 0.145295 -0.145295 -0.0838861 1096.66 740.533)" r="31.1"/>
    <circle class="fil0" transform="matrix(-0.5 0.866025 -0.866025 -0.5 843.038 118.1)" r="31.1"/>
    <circle class="fil0" transform="matrix(-0.4 0.69282 -0.69282 -0.4 880.712 188.408)" r="31.1"/>
    <circle class="fil0" transform="matrix(-0.32 0.554256 -0.554256 -0.32 918.385 258.711)" r="31.1"/>
    <circle class="fil0" transform="matrix(-0.256 0.443405 -0.443405 -0.256 956.059 329.02)" r="31.1"/>
    <circle class="fil0" transform="matrix(-0.2048 0.354724 -0.354724 -0.2048 993.732 399.323)" r="31.1"/>
    <circle class="fil0" transform="matrix(-0.16384 0.283779 -0.283779 -0.16384 1031.41 469.631)" r="31.1"/>
    <circle class="fil0" transform="matrix(-0.131072 0.227023 -0.227023 -0.131072 1069.08 539.938)" r="31.1"/>
    <circle class="fil0" transform="matrix(-0.104858 0.181619 -0.181619 -0.104858 1106.75 610.243)" r="31.1"/>
    <circle class="fil0" transform="matrix(-0.0838861 0.145295 -0.145295 -0.0838861 1144.42 680.549)" r="31.1"/>
   </g>
   <path class="fil1" d="M1399.56 595.77c-18.12,0 -34.73,-4.39 -49.82,-13.18 -15.1,-8.78 -27.04,-20.73 -35.83,-35.83 -8.78,-15.1 -13.18,-31.7 -13.18,-49.82l0 -23.06 66.71 0 0 23.06c0,8.78 3.15,16.33 9.47,22.65 6.32,6.31 13.87,9.47 22.65,9.47l395.3 0c8.78,0 16.33,-3.16 22.65,-9.47 6.32,-6.31 9.47,-13.86 9.47,-22.65l0 -132.59c0,-8.78 -3.15,-16.2 -9.47,-22.23 -6.31,-6.04 -13.86,-9.06 -22.65,-9.06l-395.3 0c-18.12,0 -34.73,-4.53 -49.82,-13.59 -15.1,-9.06 -27.04,-21 -35.83,-35.82 -8.78,-14.82 -13.18,-31.3 -13.18,-49.41l0 -132.59c0,-18.12 4.39,-34.73 13.18,-49.83 8.78,-15.1 20.72,-27.04 35.83,-35.82 15.1,-8.78 31.7,-13.18 49.82,-13.18l395.3 0c18.12,0 34.73,4.39 49.82,13.18 15.1,8.78 27.04,20.72 35.83,35.82 8.78,15.1 13.18,31.71 13.18,49.83l0 23.06 -66.71 0 0 -23.06c0,-8.78 -3.15,-16.33 -9.47,-22.65 -6.31,-6.31 -13.86,-9.47 -22.65,-9.47l-395.3 0c-8.78,0 -16.33,3.16 -22.65,9.47 -6.31,6.32 -9.47,13.87 -9.47,22.65l0 132.59c0,8.78 3.15,16.2 9.47,22.24 6.32,6.04 13.87,9.06 22.65,9.06l395.3 0c18.12,0 34.73,4.53 49.82,13.59 15.1,9.06 27.04,21 35.83,35.83 8.78,14.82 13.18,31.3 13.18,49.41l0 132.59c0,18.12 -4.39,34.73 -13.18,49.82 -8.78,15.1 -20.73,27.04 -35.83,35.83 -15.1,8.78 -31.7,13.18 -49.82,13.18l-395.3 0z"/>
   <path id="1" class="fil1" d="M2078.99 595.77c-18.12,0 -34.73,-4.53 -49.82,-13.59 -15.1,-9.06 -27.18,-21.14 -36.24,-36.24 -9.06,-15.1 -13.59,-31.71 -13.59,-49.82l0 -378.01 67.53 0 0 378.01c0,8.78 3.16,16.33 9.47,22.65 6.31,6.31 13.86,9.47 22.65,9.47l286.6 0c8.78,0 16.47,-3.16 23.06,-9.47 6.59,-6.31 9.88,-13.86 9.88,-22.65l0 -378.01 67.53 0 0 378.01c0,18.12 -4.53,34.73 -13.59,49.82 -9.06,15.1 -21.14,27.18 -36.24,36.24 -15.1,9.06 -31.98,13.59 -50.65,13.59l-286.6 0z"/>
   <path id="2" class="fil1" d="M2540.18 785.19l0 0 0 -667.08 387.07 0c18.12,0 34.72,4.53 49.82,13.59 15.1,9.06 27.18,21.14 36.24,36.24 9.06,15.1 13.59,31.7 13.59,49.82l0 278.36c0,18.12 -4.53,34.73 -13.59,49.82 -9.06,15.1 -21.14,27.18 -36.24,36.24 -15.1,9.06 -31.71,13.59 -49.82,13.59l-319.54 0 0 189.42 -67.53 0zm100.48 -256.95l286.6 0c8.78,0 16.33,-3.16 22.65,-9.47 6.31,-6.31 9.47,-13.86 9.47,-22.65l0 -278.36c0,-8.78 -3.16,-16.33 -9.47,-22.65 -6.32,-6.31 -13.87,-9.47 -22.65,-9.47l-286.6 0c-8.78,0 -16.47,3.16 -23.06,9.47 -6.59,6.31 -9.88,13.86 -9.88,22.65l0 278.36c0,8.78 3.29,16.33 9.88,22.65 6.59,6.31 14.28,9.47 23.06,9.47z"/>
   <path id="3" class="fil1" d="M3184.2 595.77c-18.12,0 -34.73,-4.53 -49.82,-13.59 -15.1,-9.06 -27.18,-21.14 -36.24,-36.24 -9.06,-15.1 -13.59,-31.71 -13.59,-49.82l0 -278.36c0,-18.12 4.53,-34.73 13.59,-49.82 9.06,-15.1 21.14,-27.18 36.24,-36.24 15.1,-9.06 31.7,-13.59 49.82,-13.59l286.6 0c18.67,0 35.55,4.53 50.65,13.59 15.1,9.06 27.18,21.14 36.24,36.24 9.06,15.1 13.59,31.7 13.59,49.82l0 172.95 -419.19 0 0 105.42c0,8.78 3.15,16.33 9.47,22.65 6.31,6.31 13.86,9.47 22.65,9.47l387.07 0 0 67.53 -387.07 0zm-32.12 -272.6l350.83 0 0 -105.42c0,-8.78 -3.16,-16.33 -9.47,-22.65 -6.31,-6.31 -13.86,-9.47 -22.65,-9.47l-286.6 0c-8.78,0 -16.33,3.16 -22.65,9.47 -6.32,6.31 -9.47,13.86 -9.47,22.65l0 105.42z"/>
   <path id="4" class="fil1" d="M3651.15 595.77l0 0 0 -378.01c0,-18.12 4.53,-34.73 13.59,-49.82 9.06,-15.1 21.14,-27.18 36.24,-36.24 15.1,-9.06 31.71,-13.59 49.82,-13.59l268.48 0 0 67.53 -268.48 0c-8.78,0 -16.33,3.16 -22.65,9.47 -6.31,6.31 -9.47,13.86 -9.47,22.65l0 378.01 -67.53 0z"/>
   <path id="5" class="fil1" d="M4174.11 595.77c-18.67,0 -35.55,-4.53 -50.65,-13.59 -15.1,-9.06 -27.18,-21.14 -36.24,-36.24 -9.06,-15.1 -13.59,-31.71 -13.59,-49.82l0 -13.18 68.35 0 0 13.18c0,8.78 3.16,16.33 9.47,22.65 6.32,6.31 13.87,9.47 22.65,9.47l399.42 0c8.78,0 16.33,-3.16 22.65,-9.47 6.31,-6.31 9.47,-13.86 9.47,-22.65l0 -137.53c0,-8.78 -3.16,-16.33 -9.47,-22.65 -6.31,-6.32 -13.86,-9.47 -22.65,-9.47l-386.25 0 0 -67.53 359.89 0c8.78,0 16.33,-3.16 22.65,-9.47 6.32,-6.32 9.47,-13.87 9.47,-22.65l0 -124.35c0,-8.78 -3.15,-16.33 -9.47,-22.65 -6.31,-6.32 -13.86,-9.47 -22.65,-9.47l-373.07 0c-8.78,0 -16.33,3.15 -22.65,9.47 -6.31,6.31 -9.47,13.86 -9.47,22.65l0 21.41 -68.35 0 0 -21.41c0,-18.67 4.53,-35.55 13.59,-50.65 9.06,-15.1 21.14,-27.17 36.24,-36.24 15.1,-9.06 31.98,-13.59 50.65,-13.59l373.07 0c18.67,0 35.55,4.53 50.65,13.59 15.1,9.06 27.04,21.14 35.82,36.24 8.78,15.1 13.18,31.98 13.18,50.65l0 124.35c0,7.69 -0.96,15.24 -2.89,22.65 -1.92,7.41 -4.25,14.13 -7,20.17 13.73,13.18 23.2,27.73 28.41,43.65 5.21,15.92 7.82,31.02 7.82,45.3l0 137.53c0,18.12 -4.53,34.73 -13.59,49.82 -9.06,15.1 -21.14,27.18 -36.24,36.24 -15.1,9.06 -31.7,13.59 -49.82,13.59l-399.42 0z"/>
   <polygon class="fil1" points="1343.13,1026.36 1342.94,914.88 1305.21,914.69 1305.21,901.35 1396.69,901.16 1396.69,914.88 1358.76,914.69 1358.95,1026.36 "/>
   <path id="1" class="fil1" d="M1419.17 1026.36l0 -125.02 39.07 0c8.51,0 16.07,1.11 22.68,3.34 6.6,2.22 11.78,5.91 15.53,11.05 3.75,5.15 5.62,12.04 5.62,20.68 0,8.38 -1.87,15.31 -5.62,20.77 -3.75,5.46 -8.93,9.56 -15.53,12.29 -6.61,2.73 -14.17,4.1 -22.68,4.1l-23.25 0 0 52.79 -15.81 0zm15.81 -65.75l20.96 0c9.79,0 17.28,-2 22.49,-6 5.21,-4 7.81,-10.07 7.81,-18.2 0,-8.13 -2.6,-13.88 -7.81,-17.25 -5.21,-3.37 -12.7,-5.05 -22.49,-5.05l-20.96 0 0 46.5zm52.79 65.75l-32.59 -57.17 12.39 -8.38 38.12 65.56 -17.91 0z"/>
   <polygon id="2" class="fil1" points="1527.61,1026.36 1527.61,901.35 1543.43,901.16 1543.43,1026.36 "/>
   <path id="3" class="fil1" d="M1561.15 1026.36l42.31 -125.02 17.91 0 42.31 125.02 -16.77 0 -21.91 -69.94c-2.29,-6.98 -4.45,-13.94 -6.48,-20.86 -2.03,-6.93 -4.06,-14.01 -6.1,-21.25l-0.77 0c-1.9,7.24 -3.87,14.32 -5.91,21.25 -2.03,6.92 -4.19,13.88 -6.48,20.86l-22.1 69.94 -16.01 0zm22.1 -38.12l0 -12.58 57.74 0 0 12.58 -57.74 0z"/>
   <path id="4" class="fil1" d="M1681.21 1026.36l0 -125.02 17.34 0 44.4 77.76c2.42,4.19 4.7,8.54 6.86,13.05 2.16,4.51 4.32,9.11 6.48,13.82l0.76 0c-0.38,-6.48 -0.82,-13.12 -1.33,-19.92 -0.51,-6.79 -0.77,-13.37 -0.77,-19.72l0 -64.99 15.25 0 0 125.02 -17.34 0 -44.41 -77.75c-2.29,-4.19 -4.6,-8.58 -6.95,-13.15 -2.35,-4.58 -4.54,-9.15 -6.57,-13.72l-0.76 0c0.51,6.23 0.98,12.64 1.43,19.25 0.44,6.61 0.66,13.28 0.66,20.01l0 65.37 -15.05 0z"/>
   <path id="5" class="fil1" d="M1853.68 1028.65c-11.06,0 -20.81,-2.57 -29.26,-7.72 -8.45,-5.15 -15.09,-12.55 -19.91,-22.2 -4.83,-9.66 -7.24,-21.28 -7.24,-34.87 0,-10.04 1.43,-19.06 4.29,-27.06 2.86,-8 6.86,-14.83 12,-20.49 5.15,-5.65 11.21,-9.94 18.2,-12.86 6.99,-2.92 14.61,-4.38 22.87,-4.38 8.64,0 15.91,1.59 21.82,4.77 5.91,3.18 10.64,6.73 14.2,10.67l-8.77 9.91c-3.05,-3.3 -6.7,-6.03 -10.96,-8.19 -4.25,-2.16 -9.56,-3.24 -15.91,-3.24 -8.38,0 -15.69,2.06 -21.91,6.19 -6.23,4.13 -11.02,9.94 -14.39,17.44 -3.37,7.5 -5.05,16.45 -5.05,26.87 0,10.54 1.62,19.63 4.86,27.25 3.24,7.62 7.94,13.53 14.1,17.72 6.17,4.19 13.69,6.29 22.59,6.29 4.44,0 8.7,-0.67 12.77,-2 4.07,-1.33 7.31,-3.14 9.72,-5.43l0 -32.59 -26.49 0 0 -13.15 40.97 0 0 52.6c-3.94,4.19 -9.24,7.66 -15.91,10.39 -6.67,2.73 -14.2,4.09 -22.58,4.09z"/>
   <polygon id="6" class="fil1" points="1922.1,1026.36 1922.1,901.35 1937.91,901.16 1937.91,1012.83 1992.42,1013.03 1992.61,1026.36 "/>
   <polygon id="7" class="fil1" points="2014.71,1026.36 2014.71,901.35 2086.56,901.16 2086.75,914.69 2030.53,914.69 2030.53,953.95 2077.79,954.14 2077.98,967.48 2030.53,967.28 2030.53,1012.83 2088.46,1013.03 2088.66,1026.36 "/>
   <path id="8" class="fil1" d="M2110.77 1058.76l-3.81 -9.15c5.46,-2.42 9.72,-5.68 12.77,-9.81 3.05,-4.13 4.51,-8.74 4.38,-13.82l-1.71 -14.1 7.81 11.44c-1.14,1.14 -2.38,1.97 -3.72,2.48 -1.33,0.51 -2.76,0.76 -4.29,0.76 -3.05,0 -5.68,-0.95 -7.91,-2.86 -2.22,-1.9 -3.33,-4.57 -3.33,-8 0,-3.43 1.18,-6.13 3.53,-8.1 2.35,-1.97 5.05,-2.95 8.1,-2.95 4.19,0 7.43,1.62 9.72,4.86 2.29,3.24 3.43,7.78 3.43,13.63 0,8.13 -2.22,15.31 -6.67,21.53 -4.45,6.23 -10.54,10.93 -18.29,14.1z"/>
   <polygon id="9" class="fil1" points="2226.82,1026.36 2226.63,914.88 2188.9,914.69 2188.9,901.35 2280.38,901.16 2280.38,914.88 2242.45,914.69 2242.64,1026.36 "/>
   <polygon id="10" class="fil1" points="2302.86,1026.36 2302.86,901.35 2318.68,901.16 2318.68,953.76 2376.99,953.76 2376.99,901.35 2392.81,901.16 2392.81,1026.36 2376.99,1026.36 2376.99,967.48 2318.68,967.48 2318.68,1026.36 "/>
   <polygon id="11" class="fil1" points="2427.11,1026.36 2427.11,901.35 2498.96,901.16 2499.15,914.69 2442.93,914.69 2442.93,953.95 2490.19,954.14 2490.38,967.48 2442.93,967.28 2442.93,1012.83 2500.86,1013.03 2501.06,1026.36 "/>
   <path id="12" class="fil1" d="M2600.35 1028.65c-8.89,0 -17.03,-1.68 -24.39,-5.05 -7.37,-3.37 -13.85,-7.91 -19.44,-13.63l8.96 -10.29c4.45,4.7 9.75,8.39 15.91,11.05 6.17,2.67 12.55,4 19.15,4 8.26,0 14.67,-1.87 19.25,-5.62 4.58,-3.75 6.86,-8.67 6.86,-14.77 0,-4.32 -0.92,-7.75 -2.76,-10.29 -1.84,-2.54 -4.32,-4.7 -7.43,-6.48 -3.11,-1.78 -6.64,-3.56 -10.58,-5.34l-17.91 -7.81c-4.06,-1.78 -8.03,-4 -11.91,-6.67 -3.87,-2.67 -7.08,-6.07 -9.62,-10.2 -2.54,-4.13 -3.81,-9.24 -3.81,-15.34 0,-6.35 1.68,-12.04 5.05,-17.05 3.37,-5.02 8,-8.96 13.91,-11.82 5.91,-2.86 12.67,-4.29 20.3,-4.29 7.62,0 14.61,1.4 20.96,4.19 6.35,2.79 11.69,6.42 16.01,10.86l-8.58 10.29c-3.94,-3.43 -8.26,-6.19 -12.96,-8.29 -4.7,-2.1 -9.85,-3.14 -15.44,-3.14 -6.99,0 -12.61,1.65 -16.87,4.95 -4.25,3.31 -6.38,7.75 -6.38,13.34 0,3.94 1.02,7.18 3.05,9.72 2.03,2.54 4.67,4.64 7.91,6.29 3.24,1.65 6.51,3.24 9.81,4.76l17.73 7.62c4.96,2.16 9.37,4.64 13.24,7.43 3.87,2.79 6.92,6.29 9.15,10.48 2.22,4.19 3.33,9.34 3.33,15.44 0,6.6 -1.68,12.61 -5.05,18.01 -3.37,5.4 -8.26,9.69 -14.67,12.86 -6.42,3.17 -14.01,4.76 -22.77,4.76z"/>
   <polygon id="13" class="fil1" points="2689.73,1026.36 2689.53,914.88 2651.8,914.69 2651.8,901.35 2743.28,901.16 2743.28,914.88 2705.35,914.69 2705.54,1026.36 "/>
   <path id="14" class="fil1" d="M2765.77 1026.36l0 -125.02 39.07 0c8.51,0 16.07,1.11 22.68,3.34 6.6,2.22 11.78,5.91 15.53,11.05 3.75,5.15 5.62,12.04 5.62,20.68 0,8.38 -1.87,15.31 -5.62,20.77 -3.75,5.46 -8.93,9.56 -15.53,12.29 -6.61,2.73 -14.17,4.1 -22.68,4.1l-23.25 0 0 52.79 -15.81 0zm15.81 -65.75l20.96 0c9.79,0 17.28,-2 22.49,-6 5.21,-4 7.81,-10.07 7.81,-18.2 0,-8.13 -2.6,-13.88 -7.81,-17.25 -5.21,-3.37 -12.7,-5.05 -22.49,-5.05l-20.96 0 0 46.5zm52.79 65.75l-32.59 -57.17 12.39 -8.38 38.12 65.56 -17.91 0z"/>
   <path id="15" class="fil1" d="M2920.32 1028.65c-10.42,0 -19.66,-2.67 -27.73,-8 -8.07,-5.33 -14.35,-12.89 -18.87,-22.68 -4.51,-9.78 -6.76,-21.35 -6.76,-34.68 0,-13.34 2.25,-24.81 6.76,-34.4 4.51,-9.59 10.8,-16.96 18.87,-22.1 8.07,-5.15 17.31,-7.72 27.73,-7.72 10.55,0 19.82,2.57 27.83,7.72 8,5.15 14.29,12.52 18.87,22.1 4.57,9.59 6.86,21.06 6.86,34.4 0,13.34 -2.29,24.9 -6.86,34.68 -4.58,9.78 -10.86,17.34 -18.87,22.68 -8,5.33 -17.28,8 -27.83,8zm0 -14.1c7.5,0 14.01,-2.1 19.53,-6.29 5.53,-4.19 9.82,-10.13 12.86,-17.82 3.05,-7.69 4.57,-16.74 4.57,-27.15 0,-10.29 -1.52,-19.19 -4.57,-26.68 -3.05,-7.5 -7.34,-13.31 -12.86,-17.44 -5.52,-4.13 -12.04,-6.19 -19.53,-6.19 -7.37,0 -13.85,2.06 -19.44,6.19 -5.59,4.13 -9.91,9.94 -12.96,17.44 -3.05,7.5 -4.58,16.39 -4.58,26.68 0,10.42 1.52,19.47 4.58,27.15 3.05,7.69 7.37,13.63 12.96,17.82 5.59,4.19 12.07,6.29 19.44,6.29z"/>
   <path id="16" class="fil1" d="M3000.74 1026.36l0 -125.02 17.34 0 44.4 77.76c2.42,4.19 4.7,8.54 6.86,13.05 2.16,4.51 4.32,9.11 6.48,13.82l0.76 0c-0.38,-6.48 -0.82,-13.12 -1.33,-19.92 -0.51,-6.79 -0.77,-13.37 -0.77,-19.72l0 -64.99 15.25 0 0 125.02 -17.34 0 -44.41 -77.75c-2.29,-4.19 -4.6,-8.58 -6.95,-13.15 -2.35,-4.58 -4.54,-9.15 -6.57,-13.72l-0.76 0c0.51,6.23 0.98,12.64 1.43,19.25 0.44,6.61 0.66,13.28 0.66,20.01l0 65.37 -15.05 0z"/>
   <path id="17" class="fil1" d="M3173.21 1028.65c-11.06,0 -20.81,-2.57 -29.26,-7.72 -8.45,-5.15 -15.09,-12.55 -19.91,-22.2 -4.83,-9.66 -7.24,-21.28 -7.24,-34.87 0,-10.04 1.43,-19.06 4.29,-27.06 2.86,-8 6.86,-14.83 12,-20.49 5.15,-5.65 11.21,-9.94 18.2,-12.86 6.99,-2.92 14.61,-4.38 22.87,-4.38 8.64,0 15.91,1.59 21.82,4.77 5.91,3.18 10.64,6.73 14.2,10.67l-8.77 9.91c-3.05,-3.3 -6.7,-6.03 -10.96,-8.19 -4.25,-2.16 -9.56,-3.24 -15.91,-3.24 -8.38,0 -15.69,2.06 -21.91,6.19 -6.23,4.13 -11.02,9.94 -14.39,17.44 -3.37,7.5 -5.05,16.45 -5.05,26.87 0,10.54 1.62,19.63 4.86,27.25 3.24,7.62 7.94,13.53 14.1,17.72 6.17,4.19 13.69,6.29 22.59,6.29 4.44,0 8.7,-0.67 12.77,-2 4.07,-1.33 7.31,-3.14 9.72,-5.43l0 -32.59 -26.49 0 0 -13.15 40.97 0 0 52.6c-3.94,4.19 -9.24,7.66 -15.91,10.39 -6.67,2.73 -14.2,4.09 -22.58,4.09z"/>
   <polygon id="18" class="fil1" points="3241.63,1026.36 3241.63,901.35 3313.47,901.16 3313.66,914.69 3257.44,914.69 3257.44,953.95 3304.71,954.14 3304.9,967.48 3257.44,967.28 3257.44,1012.83 3315.38,1013.03 3315.57,1026.36 "/>
   <path id="19" class="fil1" d="M3376.75 1028.65c-8.89,0 -17.03,-1.68 -24.39,-5.05 -7.37,-3.37 -13.85,-7.91 -19.44,-13.63l8.96 -10.29c4.45,4.7 9.75,8.39 15.91,11.05 6.17,2.67 12.55,4 19.15,4 8.26,0 14.67,-1.87 19.25,-5.62 4.58,-3.75 6.86,-8.67 6.86,-14.77 0,-4.32 -0.92,-7.75 -2.76,-10.29 -1.84,-2.54 -4.32,-4.7 -7.43,-6.48 -3.11,-1.78 -6.64,-3.56 -10.58,-5.34l-17.91 -7.81c-4.06,-1.78 -8.03,-4 -11.91,-6.67 -3.87,-2.67 -7.08,-6.07 -9.62,-10.2 -2.54,-4.13 -3.81,-9.24 -3.81,-15.34 0,-6.35 1.68,-12.04 5.05,-17.05 3.37,-5.02 8,-8.96 13.91,-11.82 5.91,-2.86 12.67,-4.29 20.3,-4.29 7.62,0 14.61,1.4 20.96,4.19 6.35,2.79 11.69,6.42 16.01,10.86l-8.58 10.29c-3.94,-3.43 -8.26,-6.19 -12.96,-8.29 -4.7,-2.1 -9.85,-3.14 -15.44,-3.14 -6.99,0 -12.61,1.65 -16.87,4.95 -4.25,3.31 -6.38,7.75 -6.38,13.34 0,3.94 1.02,7.18 3.05,9.72 2.03,2.54 4.67,4.64 7.91,6.29 3.24,1.65 6.51,3.24 9.81,4.76l17.73 7.62c4.96,2.16 9.37,4.64 13.24,7.43 3.87,2.79 6.92,6.29 9.15,10.48 2.22,4.19 3.33,9.34 3.33,15.44 0,6.6 -1.68,12.61 -5.05,18.01 -3.37,5.4 -8.26,9.69 -14.67,12.86 -6.42,3.17 -14.01,4.76 -22.77,4.76z"/>
   <polygon id="20" class="fil1" points="3466.12,1026.36 3465.93,914.88 3428.2,914.69 3428.2,901.35 3519.67,901.16 3519.67,914.88 3481.75,914.69 3481.94,1026.36 "/>
   <path id="21" class="fil1" d="M3626.39 1028.65c-10.42,0 -19.66,-2.67 -27.73,-8 -8.07,-5.33 -14.35,-12.89 -18.87,-22.68 -4.51,-9.78 -6.76,-21.35 -6.76,-34.68 0,-13.34 2.25,-24.81 6.76,-34.4 4.51,-9.59 10.8,-16.96 18.87,-22.1 8.07,-5.15 17.31,-7.72 27.73,-7.72 10.55,0 19.82,2.57 27.83,7.72 8,5.15 14.29,12.52 18.87,22.1 4.57,9.59 6.86,21.06 6.86,34.4 0,13.34 -2.29,24.9 -6.86,34.68 -4.58,9.78 -10.86,17.34 -18.87,22.68 -8,5.33 -17.28,8 -27.83,8zm0 -14.1c7.5,0 14.01,-2.1 19.53,-6.29 5.53,-4.19 9.82,-10.13 12.86,-17.82 3.05,-7.69 4.57,-16.74 4.57,-27.15 0,-10.29 -1.52,-19.19 -4.57,-26.68 -3.05,-7.5 -7.34,-13.31 -12.86,-17.44 -5.52,-4.13 -12.04,-6.19 -19.53,-6.19 -7.37,0 -13.85,2.06 -19.44,6.19 -5.59,4.13 -9.91,9.94 -12.96,17.44 -3.05,7.5 -4.58,16.39 -4.58,26.68 0,10.42 1.52,19.47 4.58,27.15 3.05,7.69 7.37,13.63 12.96,17.82 5.59,4.19 12.07,6.29 19.44,6.29z"/>
   <polygon id="22" class="fil1" points="3706.82,1026.36 3706.82,901.35 3778.86,901.16 3778.86,914.69 3722.63,914.69 3722.63,956.99 3770.28,956.99 3770.28,970.34 3722.63,970.34 3722.63,1026.36 "/>
   <polygon id="23" class="fil1" points="3865.19,1026.36 3865,914.88 3827.26,914.69 3827.26,901.35 3918.74,901.16 3918.74,914.88 3880.81,914.69 3881.01,1026.36 "/>
   <polygon id="24" class="fil1" points="3941.23,1026.36 3941.23,901.35 3957.04,901.16 3957.04,953.76 4015.36,953.76 4015.36,901.35 4031.18,901.16 4031.18,1026.36 4015.36,1026.36 4015.36,967.48 3957.04,967.48 3957.04,1026.36 "/>
   <polygon id="25" class="fil1" points="4065.48,1026.36 4065.48,901.35 4137.32,901.16 4137.51,914.69 4081.29,914.69 4081.29,953.95 4128.56,954.14 4128.75,967.48 4081.29,967.28 4081.29,1012.83 4139.23,1013.03 4139.42,1026.36 "/>
   <path id="26" class="fil1" d="M4165.91 1026.36l0 -125.02 20.01 0 23.63 66.89c1.52,4.19 2.95,8.38 4.29,12.58 1.33,4.19 2.7,8.64 4.09,13.34l0.77 0c1.4,-4.7 2.73,-9.15 4,-13.34 1.27,-4.19 2.6,-8.38 4,-12.58l23.63 -66.89 19.82 0 0 125.02 -14.87 0 0 -68.8c0,-3.69 0.13,-7.81 0.38,-12.39 0.25,-4.57 0.54,-9.11 0.86,-13.63 0.31,-4.51 0.67,-8.61 1.05,-12.29l-0.76 0 -9.72 30.11 -23.44 64.6 -11.62 0 -23.44 -64.6 -9.72 -30.11 -0.76 0c0.38,3.69 0.73,7.78 1.05,12.29 0.32,4.51 0.6,9.05 0.86,13.63 0.25,4.57 0.38,8.7 0.38,12.39l0 68.8 -14.48 0z"/>
   <path id="27" class="fil1" d="M4325.99 1026.36l42.31 -125.02 17.91 0 42.31 125.02 -16.77 0 -21.91 -69.94c-2.29,-6.98 -4.45,-13.94 -6.48,-20.86 -2.03,-6.93 -4.06,-14.01 -6.1,-21.25l-0.77 0c-1.9,7.24 -3.87,14.32 -5.91,21.25 -2.03,6.92 -4.19,13.88 -6.48,20.86l-22.1 69.94 -16.01 0zm22.1 -38.12l0 -12.58 57.74 0 0 12.58 -57.74 0z"/>
   <polygon id="28" class="fil1" points="4446.06,1026.36 4446.06,901.35 4461.87,901.16 4461.87,1012.83 4516.38,1013.03 4516.57,1026.36 "/>
   <polygon id="29" class="fil1" points="4538.68,1026.36 4538.68,901.35 4554.49,901.16 4554.49,1012.83 4609,1013.03 4609.19,1026.36 "/>
   <path id="30" class="fil1" d="M4636.25 988.63l-2.1 -72.04 -0.38 -17.91 15.82 0 -0.38 17.91 -2.1 72.04 -10.86 0zm5.52 40.02c-3.05,0 -5.72,-1.11 -8,-3.33 -2.29,-2.23 -3.43,-5.05 -3.43,-8.48 0,-3.69 1.15,-6.64 3.43,-8.86 2.29,-2.23 4.96,-3.34 8,-3.34 3.18,0 5.85,1.11 8,3.34 2.16,2.22 3.24,5.18 3.24,8.86 0,3.43 -1.08,6.26 -3.24,8.48 -2.16,2.22 -4.83,3.33 -8,3.33z"/>
  </g>
 </g>
</svg>
